Coordinates
version=1
nRows=4
nColumns=63
inDegrees=yes

Units are S.I. units (second, meters, Newtons, ...)
If the header above contains a line with 'inDegrees', this indicates whether rotational values are in degrees (yes) or radians (no).

endheader
time	pelvis_tilt	pelvis_list	pelvis_rotation	pelvis_tx	pelvis_ty	pelvis_tz	hip_flexion_r	hip_adduction_r	hip_rotation_r	knee_angle_r	knee_angle_r_beta	ankle_angle_r	subtalar_angle_r	mtp_angle_r	hip_flexion_l	hip_adduction_l	hip_rotation_l	knee_angle_l	knee_angle_l_beta	ankle_angle_l	subtalar_angle_l	mtp_angle_l	L5_S1_Flex_Ext	L5_S1_Lat_Bending	L5_S1_axial_rotation	L4_L5_Flex_Ext	L4_L5_Lat_Bending	L4_L5_axial_rotation	L3_L4_Flex_Ext	L3_L4_Lat_Bending	L3_L4_axial_rotation	L2_L3_Flex_Ext	L2_L3_Lat_Bending	L2_L3_axial_rotation	L1_L2_Flex_Ext	L1_L2_Lat_Bending	L1_L2_axial_rotation	L1_T12_Flex_Ext	L1_T12_Lat_Bending	L1_T12_axial_rotation	Abs_r3	Abs_r2	Abs_r1	Abs_t1	Abs_t2	neck_flexion	neck_bending	neck_rotation	arm_flex_r	arm_add_r	arm_rot_r	elbow_flex_r	pro_sup_r	wrist_flex_r	wrist_dev_r	arm_flex_l	arm_add_l	arm_rot_l	elbow_flex_l	pro_sup_l	wrist_flex_l	wrist_dev_l
      6.36666667	     -3.79187666	      9.76950632	    115.20647114	      0.20768370	      0.78422407	      0.67040855	     -8.87801483	     -5.33076901	    -29.42264269	     20.59543317	      0.35945812	     41.31187762	     16.24379085	      0.00000000	     -2.26298612	      2.70803638	     12.86543879	     19.72388526	      0.34424674	     39.92114299	     15.65845182	      0.00000000	     -0.50691929	      1.28699654	      1.27845769	     -0.94139981	      1.71170539	      1.35836129	     -0.83281770	      3.12920338	      1.35836129	     -0.57935806	      3.12920338	      1.11865048	     -0.47072525	      2.62444333	      1.03874687	     -0.28965368	      1.99355763	      0.95884327	     -3.62087379	     14.55876220	      7.11039813	      0.00000000	      0.00000000	     -1.26945640	      4.93309667	    -20.53500402	     19.14961784	    -20.82593519	     71.78989838	     39.30945238	     88.49558393	    -15.59890731	      5.28481485	      8.90111842	     -9.24638307	     51.62902937	     43.92971993	     88.67646601	    -14.35203963	     -2.59036344
      6.38333333	     -3.24948928	      8.98338072	    114.03490867	      0.20962472	      0.78354684	      0.67023667	     -7.67298678	     -5.30788064	    -28.72116638	     20.54761839	      0.35862359	     40.90298343	     16.40637324	      0.00000000	     -1.29803144	      2.58574474	     12.21782531	     19.63539012	      0.34270221	     39.84073887	     15.31270644	      0.00000000	     -0.43772551	      1.29633419	      1.10489935	     -0.81290005	      1.72412447	      1.17395556	     -0.71913924	      3.15190694	      1.17395556	     -0.50027649	      3.15190694	      0.96678693	     -0.40647191	      2.64348467	      0.89773072	     -0.25011636	      2.00802166	      0.82867451	     -3.12662956	     14.66439159	      6.14511870	      0.00000000	      0.00000000	     -1.65366779	      4.25407187	    -17.95791242	     20.32300813	    -20.67039566	     73.89751237	     39.24357026	     88.63647824	    -14.87133718	      5.40368819	      8.39578216	     -9.49021442	     51.24066418	     44.21132595	     88.79803890	    -14.57898543	     -2.91572872
      6.40000000	     -2.53141275	      8.03908901	    112.71095350	      0.21179514	      0.78263062	      0.67082592	     -6.14901434	     -5.15640784	    -27.74834702	     20.45050507	      0.35692865	     40.46948915	     16.51915803	      0.00000000	      0.08343367	      2.35133236	     11.40767455	     19.83698971	      0.34622078	     39.87812738	     15.06069373	      0.00000000	     -0.37342888	      1.32400000	      0.90263033	     -0.69349478	      1.76092000	      0.95904473	     -0.61350631	      3.21917361	      0.95904473	     -0.42679187	      3.21917361	      0.78980154	     -0.34676606	      2.69990081	      0.73338714	     -0.21337726	      2.05087601	      0.67697275	     -2.66736518	     14.97735284	      5.02015911	      0.00000000	      0.00000000	     -1.63817077	      3.41275973	    -15.38674928	     21.57441643	    -20.52373312	     75.63944234	     39.23212874	     88.54237786	    -13.46957123	      5.35477799	      7.85607325	     -9.71347877	     50.47962450	     44.60755212	     88.93886894	    -14.95448218	     -3.41666423
      6.41666667	     -1.71356637	      7.04003725	    111.31708462	      0.21441403	      0.78165240	      0.67218691	     -4.46585360	     -4.86197167	    -26.69212816	     20.29935415	      0.35429057	     40.01908021	     16.64887459	      0.00000000	      1.73266796	      1.98492567	     10.45398018	     20.30720050	      0.35442751	     40.02919036	     14.85605157	      0.00000000	     -0.31979379	      1.36349130	      0.71188191	     -0.59388904	      1.81344343	      0.75637453	     -0.52538921	      3.31519274	      0.75637453	     -0.36549232	      3.31519274	      0.62289667	     -0.29696051	      2.78043146	      0.57840405	     -0.18273017	      2.11204802	      0.53391144	     -2.28425504	     15.42408627	      3.95927364	      0.00000000	      0.00000000	     -1.44128068	      2.56845513	    -13.00917496	     22.61839936	    -20.45319964	     76.19169440	     39.28687458	     88.14128661	    -11.12432957	      5.16516354	      7.58228142	     -9.94671918	     49.88083357	     44.92900377	     89.03472866	    -15.20293844	     -3.63788343
